<?xml version="1.0" encoding="utf-8"?><svg xmlns="http://www.w3.org/2000/svg" xmlns:xlink="http://www.w3.org/1999/xlink"><symbol viewBox="0 0 32 32" id="bubble" xmlns="http://www.w3.org/2000/svg"><g fill-rule="evenodd" clip-rule="evenodd"><path d="M16 7c-5.963 0-11 3.206-11 7a.5.5 0 0 0 1 0c0-3.196 4.673-6 10-6a.5.5 0 0 0 0-1z"/><path d="M16 2C7.163 2 0 7.373 0 14c0 4.127 2.779 7.766 7.008 9.926 0 .027-.008.045-.008.074 0 1.793-1.339 3.723-1.928 4.736h.002A.906.906 0 0 0 5.906 30c.094 0 .259-.025.255-.014 3.125-.512 6.069-3.383 6.753-4.215A21.18 21.18 0 0 0 16 26c8.835 0 16-5.373 16-12S24.836 2 16 2zm0 22c-.917 0-1.858-.07-2.796-.207a2 2 0 0 0-1.836.709c-.428.521-1.646 1.684-3.085 2.539.39-.895.695-1.898.716-2.932a2 2 0 0 0-1.081-1.965C4.212 20.252 2 17.207 2 14 2 8.486 8.28 4 16 4c7.718 0 14 4.486 14 10s-6.281 10-14 10z"/></g></symbol><symbol viewBox="0 0 32 32" id="heart" xmlns="http://www.w3.org/2000/svg"><g fill-rule="evenodd" clip-rule="evenodd"><path d="M29.193 5.265c-3.629-3.596-9.432-3.671-13.191-.288-3.76-3.383-9.561-3.308-13.192.288a9.42 9.42 0 0 0 0 13.415l11.053 10.941a3.042 3.042 0 0 0 4.278 0L29.194 18.68a9.418 9.418 0 0 0-.001-13.415zm-1.425 12.003L16.715 28.209a1.012 1.012 0 0 1-1.425 0L4.237 17.268a7.443 7.443 0 0 1 0-10.591c2.844-2.815 7.416-2.914 10.409-.222l1.356 1.22 1.355-1.22c2.994-2.692 7.566-2.594 10.41.222a7.444 7.444 0 0 1 .001 10.591z"/><path d="M9.253 7.501l-.004.001a4.25 4.25 0 0 0-4.246 4.249.5.5 0 0 0 1 0v-.001a3.25 3.25 0 0 1 3.249-3.249h.001a.5.5 0 0 0 0-1z"/></g></symbol><symbol viewBox="0 0 51.997 51.997" id="like" xmlns="http://www.w3.org/2000/svg"><path d="M51.911 16.242c-.759-8.354-6.672-14.415-14.072-14.415-4.93 0-9.444 2.653-11.984 6.905-2.517-4.307-6.846-6.906-11.697-6.906C6.759 1.826.845 7.887.087 16.241c-.06.369-.306 2.311.442 5.478 1.078 4.568 3.568 8.723 7.199 12.013l18.115 16.439 18.426-16.438c3.631-3.291 6.121-7.445 7.199-12.014.748-3.166.502-5.108.443-5.477zm-2.39 5.019c-.984 4.172-3.265 7.973-6.59 10.985L25.855 47.481 9.072 32.25c-3.331-3.018-5.611-6.818-6.596-10.99-.708-2.997-.417-4.69-.416-4.701l.015-.101c.65-7.319 5.731-12.632 12.083-12.632 4.687 0 8.813 2.88 10.771 7.515l.921 2.183.921-2.183c1.927-4.564 6.271-7.514 11.069-7.514 6.351 0 11.433 5.313 12.096 12.727.002.016.293 1.71-.415 4.707z"/><path d="M15.999 7.904c-5.514 0-10 4.486-10 10a1 1 0 1 0 2 0c0-4.411 3.589-8 8-8a1 1 0 1 0 0-2z"/></symbol><symbol viewBox="0 0 32 32" id="lock" xmlns="http://www.w3.org/2000/svg"><path d="M25 13V9a9 9 0 0 0-9-9 9 9 0 0 0-9 9v4a3 3 0 0 0-3 3v7a9 9 0 0 0 9 9h6a9 9 0 0 0 9-9v-7a3 3 0 0 0-3-3zM9 9a7 7 0 1 1 14 0v4h-2V9.002a5 5 0 0 0-5-5 5 5 0 0 0-5 5V13H9V9zm11 0v4h-8V9a4 4 0 0 1 8 0zm6 10v4c0 3.859-3.141 7-7 7h-6c-3.859 0-7-3.141-7-7v-7a1 1 0 0 1 1-1h18c.551 0 1 .448 1 1v3z"/><path d="M16 19a2 2 0 0 0-2 2c0 .607.333 1.76.667 2.672.272.742.614 1.326 1.333 1.326.782 0 1.061-.578 1.334-1.316.338-.914.666-2.073.666-2.682a2 2 0 0 0-2-2z"/></symbol><symbol viewBox="0 0 32 32" id="news" xmlns="http://www.w3.org/2000/svg"><g fill-rule="evenodd" clip-rule="evenodd"><path d="M29 0H7a3 3 0 0 0-3 3v2H3a3 3 0 0 0-3 3v20a4 4 0 0 0 4 4h24a4 4 0 0 0 4-4V3a3 3 0 0 0-3-3zm1 28c0 1.102-.898 2-2 2H4c-1.103 0-2-.898-2-2V8a1 1 0 0 1 1-1h1v20a1 1 0 1 0 2 0V3a1 1 0 0 1 1-1h22c.551 0 1 .448 1 1v25z"/><path d="M19.498 13.005h8a.5.5 0 1 0 0-1h-8a.5.5 0 0 0 0 1zm0-3h8a.5.5 0 1 0 0-1h-8a.5.5 0 0 0 0 1zm0-3h8a.5.5 0 1 0 0-1h-8a.5.5 0 0 0 0 1zM16.5 27.004h-8a.5.5 0 0 0 0 1h8a.5.5 0 0 0 0-1zm0-3h-8a.5.5 0 0 0 0 1h8a.5.5 0 0 0 0-1zm0-3h-8a.5.5 0 0 0 0 1h8a.5.5 0 0 0 0-1zm11 6h-8a.5.5 0 0 0 0 1h8a.5.5 0 0 0 0-1zm0-3h-8a.5.5 0 0 0 0 1h8a.5.5 0 0 0 0-1zm0-3h-8a.5.5 0 0 0 0 1h8a.5.5 0 0 0 0-1zm0-6h-19a.5.5 0 0 0 0 1h19a.5.5 0 0 0 0-1zm0 3h-19a.5.5 0 0 0 0 1h19a.5.5 0 0 0 0-1zM9 13h7a1 1 0 0 0 1-1V5.004a1 1 0 0 0-1-1H9a1 1 0 0 0-1 1V12a1 1 0 0 0 1 1zm1-7h5v5h-5V6z"/></g></symbol><symbol viewBox="0 0 32 32" id="pen" xmlns="http://www.w3.org/2000/svg"><path d="M29.395 2.58C27.75.937 25.584 0 23.449 0c-1.801 0-3.459.668-4.67 1.877l-4.867 4.904c-.015.014-.032.023-.047.038-.008.008-.013.019-.021.026l.002.002L3.517 17.256a4.023 4.023 0 0 0-1.013 1.705L.155 27.469C.153 27.492 0 28.16 0 28.5 0 30.432 1.569 32 3.504 32c.385 0 1.13-.184 1.157-.188l8.478-2.229a4.021 4.021 0 0 0 1.705-1.016l15.263-15.383c2.776-2.778 2.463-7.434-.712-10.604zM16.014 23.795a8.145 8.145 0 0 0-.719-2.627l9.455-9.454c.578 1.826.281 3.736-.986 5.004-.008.008-.018.013-.025.021l.014.013-7.728 7.79c0-.249.012-.493-.011-.747zm-1.221-3.539c-.373-.613-.797-1.205-1.322-1.729-.611-.611-1.312-1.09-2.044-1.492l9.532-9.532a6.939 6.939 0 0 1 2.098 1.438 6.976 6.976 0 0 1 1.281 1.771l-9.545 9.544zm-4.307-3.694a7.976 7.976 0 0 0-2.868-.599l7.703-7.762c1.179-1.15 2.896-1.481 4.587-1.062l-9.422 9.423zM4.167 29.873c-.109.025-.448.111-.678.127A1.505 1.505 0 0 1 2 28.5c.012-.168.079-.457.102-.562l1.053-3.814c1.143-.031 2.373.414 3.34 1.383.982.98 1.444 2.234 1.394 3.391l-3.722.975zm4.707-1.236c-.024-1.342-.57-2.738-1.672-3.838-1.042-1.043-2.406-1.645-3.766-1.699l.996-3.607c.072-.24.215-.477.391-.684 2.006-1.436 5.091-1.012 7.234 1.133 2.267 2.266 2.617 5.586.871 7.568a1.97 1.97 0 0 1-.359.156l-3.695.971zm19.817-16.865l-1.684 1.697c0-.226.027-.443.006-.674-.176-1.935-1.078-3.806-2.543-5.269-1.629-1.63-3.789-2.565-5.928-2.571l1.656-1.67C21.027 2.458 22.184 2 23.449 2c1.609 0 3.262.728 4.533 1.995 1.193 1.191 1.904 2.671 2.006 4.168.094 1.397-.367 2.678-1.297 3.609z"/></symbol><symbol viewBox="0 0 32 32" id="search" xmlns="http://www.w3.org/2000/svg"><path d="M20 .005c-6.627 0-12 5.373-12 12 0 2.026.507 3.933 1.395 5.608l-8.344 8.342.007.006A3.515 3.515 0 0 0 0 28.477a3.529 3.529 0 0 0 3.529 3.529c.985 0 1.874-.406 2.515-1.059l-.002-.002 8.341-8.34c1.676.891 3.586 1.4 5.617 1.4 6.627 0 12-5.373 12-12s-5.373-12-12-12zM4.795 29.697a1.75 1.75 0 0 1-1.266.543 1.764 1.764 0 0 1-1.765-1.764c0-.498.21-.943.543-1.266l-.009-.008 8.066-8.066a12.101 12.101 0 0 0 2.494 2.498l-8.063 8.063zM20 22.006c-5.522 0-10-4.479-10-10 0-5.522 4.478-10 10-10 5.521 0 10 4.478 10 10 0 5.521-4.479 10-10 10z"/><path d="M20 5.005a7 7 0 0 0-7 7 .5.5 0 0 0 1 0 6 6 0 0 1 6-6 .5.5 0 0 0 0-1z"/></symbol><symbol viewBox="0 0 32 32" id="settings" xmlns="http://www.w3.org/2000/svg"><path d="M30.391 12.68l-3.064-.614a12.098 12.098 0 0 0-.537-1.289l1.736-2.604a1.999 1.999 0 0 0-.25-2.523l-1.924-1.924a1.996 1.996 0 0 0-2.523-.25l-2.604 1.735a12.09 12.09 0 0 0-1.291-.536L19.32 1.61A1.998 1.998 0 0 0 17.359.002h-2.72a2 2 0 0 0-1.961 1.608l-.614 3.065c-.443.154-.873.335-1.289.536L8.172 3.476a1.996 1.996 0 0 0-2.524.25L3.725 5.65a2 2 0 0 0-.25 2.523l1.735 2.604c-.202.417-.382.847-.536 1.29l-3.066.613A2 2 0 0 0 0 14.641v2.72a2 2 0 0 0 1.608 1.961l3.065.615c.154.443.335.873.536 1.289L3.475 23.83a1.999 1.999 0 0 0 .25 2.523l1.924 1.924a1.996 1.996 0 0 0 2.523.25l2.604-1.736c.417.203.847.383 1.29.537l.613 3.064a2 2 0 0 0 1.961 1.609h2.72a2 2 0 0 0 1.961-1.609l.615-3.064c.443-.154.873-.336 1.289-.537l2.604 1.736a1.998 1.998 0 0 0 2.523-.25l1.924-1.924a2 2 0 0 0 .25-2.523l-1.736-2.604c.203-.418.383-.848.537-1.291l3.064-.613A2 2 0 0 0 32 17.361v-2.72c0-.953-.674-1.774-1.609-1.961zm-3.457 5.295a1.997 1.997 0 0 0-1.496 1.305c-.129.369-.279.727-.447 1.074a1.996 1.996 0 0 0 .135 1.982l1.736 2.604-1.924 1.924-2.604-1.736a1.997 1.997 0 0 0-1.98-.137c-.348.168-.705.32-1.076.449a1.998 1.998 0 0 0-1.303 1.496l-.615 3.066h-2.72l-.613-3.066a1.997 1.997 0 0 0-1.304-1.496 10.17 10.17 0 0 1-1.075-.447 1.994 1.994 0 0 0-1.981.135l-2.604 1.736-1.924-1.924 1.735-2.604c.393-.59.444-1.344.137-1.98a10.106 10.106 0 0 1-.448-1.076 2 2 0 0 0-1.496-1.303l-3.065-.615L2 14.641l3.066-.613a1.999 1.999 0 0 0 1.496-1.304c.129-.369.278-.728.447-1.075a1.995 1.995 0 0 0-.136-1.981L5.139 7.064 7.062 5.14l2.604 1.735a1.997 1.997 0 0 0 1.98.137 10.09 10.09 0 0 1 1.075-.448 1.999 1.999 0 0 0 1.304-1.496l.614-3.065 2.72-.001.613 3.066a1.998 1.998 0 0 0 1.305 1.496c.369.129.727.278 1.074.447a1.998 1.998 0 0 0 1.982-.136l2.604-1.735 1.924 1.924-1.736 2.604a2.006 2.006 0 0 0-.137 1.98c.168.347.32.705.449 1.075a1.997 1.997 0 0 0 1.496 1.304l3.064.614.003 2.72-3.066.614z"/><path d="M16 9.001A7 7 0 1 0 16.001 23 7 7 0 0 0 16 9zm0 13.126a6.126 6.126 0 1 1 6.125-6.125A6.127 6.127 0 0 1 16 22.127z"/><path d="M16 12.001a4 4 0 1 0 0 8 4 4 0 0 0 0-8zm0 7.001a3.001 3.001 0 0 1 0-6 3.001 3.001 0 0 1 0 6z"/></symbol><symbol viewBox="0 0 0 0" id="sprite" xmlns="http://www.w3.org/2000/svg"/><symbol viewBox="0 0 32 32" id="user" xmlns="http://www.w3.org/2000/svg"><path d="M31.11 28.336c-.201-.133-3.848-2.525-9.273-3.699 1.99-2.521 3.268-5.912 3.811-8.169.754-3.128.461-9.248-2.543-13.062C21.349 1.177 18.892 0 16 0c-2.892 0-5.349 1.178-7.104 3.406C5.892 7.219 5.6 13.339 6.353 16.467c.543 2.257 1.82 5.648 3.811 8.169-5.425 1.174-9.072 3.566-9.272 3.699A1.999 1.999 0 1 0 2 32h28a2.001 2.001 0 0 0 1.11-3.664zm-10.843-4.938l-.326.414c-2.385 2.74-5.495 2.74-7.879 0l-.327-.414c-2.785-3.529-4.167-8.197-3.572-12.65C8.708 6.469 11.16 2 16 2s7.293 4.47 7.838 8.749c.593 4.455-.784 9.118-3.571 12.649zM2 30c.138-.092 3.526-2.314 8.586-3.408l2.484-.537c.887.582 1.86.945 2.93.945 1.071 0 2.043-.363 2.93-.945l2.484.537C26.434 27.678 29.81 29.875 30 30H2z"/></symbol></svg>